<svg id="Layer_1" enable-background="new 0 0 512 512" height="512" viewBox="0 0 512 512" width="512" xmlns="http://www.w3.org/2000/svg"><g><g><g><g><path d="m474.5 392.962h-437c-16.569 0-30-13.431-30-30v-282.417c0-16.569 13.431-30 30-30h437c16.569 0 30 13.431 30 30v282.417c0 16.568-13.431 30-30 30z" fill="#506d90"/><path d="m474.5 50.545h-30c16.569 0 30 13.431 30 30v282.417c0 16.569-13.431 30-30 30h30c16.569 0 30-13.431 30-30v-282.417c0-16.569-13.431-30-30-30z" fill="#455f7e"/><path d="m37.5 343.962v-259.417c0-2.209 1.791-4 4-4h429c2.209 0 4 1.791 4 4v259.417c0 2.209-1.791 4-4 4h-429c-2.209 0-4-1.791-4-4z" fill="#ecf5ff"/><path d="m37.5 343.962v-259.417c0-2.209 1.791-4 4-4h429c2.209 0 4 1.791 4 4v259.417c0 2.209-1.791 4-4 4h-429c-2.209 0-4-1.791-4-4z" fill="#ecf5ff"/><path d="m470.5 80.545h-30c2.209 0 4 1.791 4 4v259.417c0 2.209-1.791 4-4 4h30c2.209 0 4-1.791 4-4v-259.417c0-2.21-1.791-4-4-4z" fill="#dbeafd"/><path d="m305.543 504.5h-99.086l15-111.538h69.086z" fill="#455f7e"/><path d="m290.543 392.962h-30l15 111.538h30z" fill="#405972"/><path d="m320.895 456.277 10.563 38.085c1.414 5.097-2.42 10.138-7.709 10.138h-135.497c-5.289 0-9.123-5.041-7.709-10.138l10.563-38.085c.961-3.464 4.114-5.862 7.709-5.862h114.372c3.594 0 6.747 2.397 7.708 5.862z" fill="#506d90"/><path d="m331.458 494.362-10.563-38.085c-.961-3.464-4.114-5.862-7.709-5.862h-30c3.595 0 6.748 2.398 7.709 5.862l10.563 38.085c1.414 5.097-2.42 10.138-7.709 10.138h30c5.289 0 9.122-5.041 7.709-10.138z" fill="#455f7e"/></g><path d="m97.01 67.5h317.98v280.462h-317.98z" fill="#f7f6f7"/><path d="m384.99 67.5h30v280.462h-30z" fill="#e2d8ec"/><g><g><path d="m336.037 287.962h-160.074c-8.491 0-15.374-6.883-15.374-15.374v-159.714c0-8.491 6.883-15.374 15.374-15.374h160.073c8.491 0 15.374 6.883 15.374 15.374v159.713c.001 8.492-6.882 15.375-15.373 15.375z" fill="#bcd7fd"/></g></g><path d="m336.037 97.5h-30c8.491 0 15.374 6.883 15.374 15.374v159.713c0 8.491-6.883 15.374-15.374 15.374h30c8.491 0 15.374-6.883 15.374-15.374v-159.713c0-8.491-6.883-15.374-15.374-15.374z" fill="#9bc6fd"/><path d="m387.99 7.5h-278.98c-6.627 0-12 5.373-12 12v48h317.98l-15-48c0-6.627-5.373-12-12-12z" fill="#455f7e"/><path d="m402.99 7.5h-30c6.627 0 12 5.373 12 12v48h30v-48c0-6.627-5.373-12-12-12z" fill="#405972"/><g><g><ellipse cx="375.136" cy="96.561" fill="#cf9772" rx="123.521" ry="24.498" transform="matrix(.707 -.707 .707 .707 41.596 293.543)"/><path d="m462.479 9.218c-3.957-3.957-14.299-.909-28.475 7.434-2.559 17.351-31.117 56.805-71.544 97.232-28.286 28.286-56.093 50.759-76.19 62.586-.495 3.352-.024 5.885 1.525 7.434 9.567 9.567 56.427-21.782 104.666-70.02s79.585-95.098 70.018-104.666z" fill="#c88556"/><path d="m348.774 119.136c-8.39-7.412-18.105-7.819-20.778-7.842-30.49 35.444-47.609 65.203-40.203 72.61 7.335 7.335 36.592-9.382 71.583-39.32.079-1.894.422-15.709-10.602-25.448z" fill="#d8ab89"/><path d="m288.634 184.57c9.67 5.918 41.067-14.848 67.743-37.442.989-.832 1.981-1.673 2.979-2.527.007-.006.014-.012.02-.017.068-1.631.324-12.096-6.638-21.19-24.85 23.793-48.675 42.602-66.462 53.071-.335 2.443-.57 6.313 2.358 8.105z" fill="#cf9772"/><path d="m306.91 150.286c-13.703-3.763-31.433 3.119-38.439 15.625-6.595 11.772.325 20.617-6.54 33.262-3.826 7.046-9.933 11.592-15.64 14.558-2.773 1.441-2.801 5.367-.056 6.859 8.546 4.643 24.658 10.775 42.187 4.019 20.988-8.09 31.707-29.915 30.788-48.069-.183-3.589-.05-22.89-12.3-26.254z" fill="#f7e07f"/><path d="m319.209 176.539c-.182-3.588-.049-22.889-12.3-26.253-7.828-2.15-16.968-.821-24.674 3.041 6.881 6.567 6.823 20.248 6.974 23.212.919 18.154-9.799 39.979-30.788 48.069-.497.191-.992.369-1.486.541 8.625 2.723 19.735 3.989 31.486-.541 20.989-8.09 31.707-29.915 30.788-48.069z" fill="#f0d16f"/></g></g></g></g><path d="m187.01 30c-4.142 0-7.5 3.358-7.5 7.5s3.358 7.5 7.5 7.5 7.5-3.358 7.5-7.5-3.358-7.5-7.5-7.5zm-60 0c-4.142 0-7.5 3.358-7.5 7.5s3.358 7.5 7.5 7.5 7.5-3.358 7.5-7.5-3.358-7.5-7.5-7.5zm347.49 13.04h-13.899c11.864-19.639 14.13-32.176 7.182-39.124-7.698-7.698-22.266-4.082-45.762 11.38-1.929-8.736-9.723-15.296-19.031-15.296h-293.98c-10.752 0-19.5 8.748-19.5 19.5v23.54h-52.01c-20.678 0-37.5 16.822-37.5 37.5v282.42c0 20.678 16.822 37.5 37.5 37.5h175.383l-5.712 42.455h-8.357c-6.939 0-13.081 4.67-14.936 11.357l-10.563 38.085c-1.306 4.707-.358 9.637 2.598 13.524 2.957 3.889 7.454 6.118 12.338 6.118h135.497c4.885 0 9.383-2.23 12.339-6.118 2.956-3.889 3.903-8.818 2.598-13.523l-10.563-38.085c-1.854-6.688-7.995-11.358-14.937-11.358h-8.357l-5.712-42.455h175.384c20.678 0 37.5-16.822 37.5-37.5v-282.42c0-20.678-16.822-37.5-37.5-37.5zm-49.747-11.476c18.502-12.923 28.316-16.207 31.938-16.556-.348 3.622-3.632 13.436-16.555 31.937-12.937 18.521-31.751 40.408-52.979 61.631-7.526 7.527-15.103 14.71-22.565 21.433-1.832-5.411-5.089-11.403-10.851-16.494-3.776-3.336-7.749-5.538-11.515-6.997 6.588-7.297 13.594-14.68 20.888-21.974 21.228-21.23 43.118-40.044 61.639-52.98zm2.079 56.476h40.168v252.42h-44.51v-247.473c1.47-1.655 2.919-3.305 4.342-4.947zm-154.032 93.945c-.044-4.832-.076-8.322 2.213-12.408 5.293-9.447 18.988-15.055 29.91-12.059 2.303.632 6.242 3.867 6.757 18.429.553 15.657-7.104 34.395-25.955 41.662-11.442 4.411-22.355 2.164-29.98-.843 5.534-3.87 9.817-8.565 12.776-14.017 4.394-8.091 4.33-15.117 4.279-20.764zm38.857-37.94c5.582-7.827 12.201-16.263 19.585-24.983 3.43.501 8.272 1.9 12.567 5.695 6.021 5.319 7.594 12.318 7.973 16.427-9.442 7.96-18.524 14.995-26.867 20.782-2.279-9.103-6.713-15.103-13.258-17.921zm-207.147-69.045h176.291c4.143 0 7.5-3.357 7.5-7.5s-3.357-7.5-7.5-7.5h-176.291v-40.5c0-2.481 2.019-4.5 4.5-4.5h293.98c5.326-.065 4.65 6.876 4.5 10.561-12.772 9.579-26.604 21.313-40.593 34.439h-51.096c-4.143 0-7.5 3.357-7.5 7.5s3.357 7.5 7.5 7.5h35.652c-4.961 4.985-9.8 10.011-14.464 15.029-.458.059-160.381-.029-161.029-.029-12.611 0-22.87 10.26-22.87 22.87v108.68c0 4.143 3.358 7.5 7.5 7.5s7.5-3.357 7.5-7.5v-108.68c0-4.34 3.53-7.87 7.87-7.87h147.595c-10.266 11.836-21.946 26.982-28.689 36.952-13.426 1.307-26.591 8.961-32.939 20.293-4.238 7.566-4.177 14.392-4.127 19.877.045 4.911.08 8.79-2.461 13.472-2.5 4.604-6.708 8.467-12.508 11.481-3.747 1.947-6.099 5.775-6.138 9.99-.039 4.219 2.245 8.094 5.961 10.113 6.334 3.441 17.016 7.923 29.675 7.923 5.913 0 12.257-.978 18.79-3.496 23.664-9.12 35.562-32.944 35.633-52.806 5.4-3.489 11.157-7.556 17.158-12.099v105.89c0 4.34-3.53 7.87-7.87 7.87h-160.08c-4.339 0-7.87-3.53-7.87-7.87v-16.04c0-4.143-3.358-7.5-7.5-7.5s-7.5 3.357-7.5 7.5v16.04c0 12.61 10.259 22.87 22.87 22.87h160.08c12.61 0 22.87-10.26 22.87-22.87v-117.819c13.187-10.972 25.876-22.613 38.853-35.587 3.311-3.311 6.552-6.63 9.728-9.947v231.223h-302.981zm208.676 382.915c.224 0 .422.149.481.364v.001l10.563 38.087c.094.24-.221.66-.482.633h-135.497c-.259.028-.578-.389-.482-.634l10.563-38.085c.06-.216.258-.366.482-.366zm-90.88-15 5.712-42.455h55.963l5.712 42.455zm274.694-79.955c0 12.406-10.094 22.5-22.5 22.5h-437c-12.407 0-22.5-10.094-22.5-22.5v-282.42c0-12.406 10.093-22.5 22.5-22.5h52.01v15h-48.01c-6.341 0-11.5 5.159-11.5 11.5v259.42c0 6.341 5.159 11.5 11.5 11.5h429c6.341 0 11.5-5.159 11.5-11.5v-259.42c0-6.341-5.159-11.5-11.5-11.5h-31.196c4.1-5.148 7.902-10.167 11.352-15h23.844c12.406 0 22.5 10.094 22.5 22.5zm-407.49-274.92v252.42h-44.51v-252.42zm295.48 222.422h-257.98c-4.142 0-7.5 3.357-7.5 7.5s3.358 7.5 7.5 7.5h257.98c4.143 0 7.5-3.357 7.5-7.5s-3.357-7.5-7.5-7.5zm-227.98-280.462c-4.142 0-7.5 3.358-7.5 7.5s3.358 7.5 7.5 7.5 7.5-3.358 7.5-7.5-3.358-7.5-7.5-7.5z"/></g></svg>