<svg xmlns="http://www.w3.org/2000/svg" viewBox="0 0 443.1 522.96"><defs><style>.cls-1,.cls-2{fill:#5f5fff;stroke:#0f0f2b;}.cls-2{stroke-miterlimit:10;}</style></defs><g id="Layer_2" data-name="Layer 2"><g id="Layer_1-2" data-name="Layer 1"><g id="Logo"><g id="Layer_1-3" data-name="Layer 1"><path id="Path_15" data-name="Path 15" class="cls-1" d="M442.34,475.52a188.14,188.14,0,0,1-125.92,46.93,196.35,196.35,0,0,1-56.87-8.32C188.86,492.7,138,432.39,138,361.34c0-89,79.9-161.11,178.49-161.11a188.08,188.08,0,0,1,125.37,46.46l-63.11,57a94,94,0,0,0-62.26-22.87c-49.28,0-89.23,36.08-89.23,80.57s39.92,80.56,89.23,80.56h3.33a8.68,8.68,0,0,0,1,0h1a9.2,9.2,0,0,0,1.74-.11c1.17-.08,2.34-.18,3.51-.31l.83-.09h.49l1.47-.19,1-.15c1-.14,2.06-.31,3.1-.5h.27c1-.2,2.06-.39,3.09-.63s2.2-.48,3.27-.75h0c1.11-.28,2.21-.57,3.28-.89.83-.24,1.66-.48,2.5-.77a1.66,1.66,0,0,0,.38-.11l2.49-.84c.84-.26,1.34-.48,2-.73s1.6-.62,2.34-1c.28-.1.56-.22.83-.34a7.64,7.64,0,0,0,.83-.35l1-.44.36-.16c.56-.24,1.11-.51,1.66-.78a24.32,24.32,0,0,0,2.27-1.17c.75-.45,1.35-.71,2-1.07.16-.09.34-.18.5-.28a13.9,13.9,0,0,0,1.39-.84,8,8,0,0,0,1-.54l.64-.37a.87.87,0,0,1,.18-.11l1.33-.83,1.27-.83c.63-.4,1.25-.83,1.86-1.26l.28-.19c.5-.34,1-.68,1.46-1l.28-.2c.4-.28.83-.59,1.17-.88l.67-.53c.4-.3.83-.63,1.17-.94s.89-.71,1.33-1.09c.63-.53,1.24-1.05,1.85-1.59l31.46,27.87a139.23,139.23,0,0,1-93.87,35.28,148,148,0,0,1-20-1.36l-7.29,6.58a156,156,0,0,0,26.42,2.22,149,149,0,0,0,100.34-37.73Z"/><path id="Path_16" data-name="Path 16" class="cls-1" d="M426,247.38c-.28-.25-.56-.51-.83-.73"/><path id="Path_17" data-name="Path 17" class="cls-1" d="M337,434.59c-.78.33-1.57.63-2.33,1"/><path id="Path_18" data-name="Path 18" class="cls-1" d="M329.75,437.23c-.83.28-1.66.53-2.49.77-1.08.31-2.17.61-3.28.89"/><path id="Path_19" data-name="Path 19" class="cls-1" d="M323.91,438.91c-1.08.26-2.16.52-3.27.76s-2.06.43-3.1.63"/><path id="Path_20" data-name="Path 20" class="cls-1" d="M362.88,304.36l-.83-.73"/><path id="Path_21" data-name="Path 21" class="cls-1" d="M341.6,432.51c-.55.27-1.1.53-1.67.77"/><path id="Path_22" data-name="Path 22" class="cls-1" d="M337,434.59c-.78.33-1.57.63-2.33,1"/><path id="Path_23" data-name="Path 23" class="cls-1" d="M329.75,437.23c-.83.28-1.66.53-2.49.77-1.08.31-2.17.61-3.28.89"/><path id="Path_24" data-name="Path 24" class="cls-1" d="M323.91,438.91c-1.08.26-2.16.52-3.27.76s-2.06.43-3.1.63"/><path id="Path_25" data-name="Path 25" class="cls-1" d="M362.88,304.36l-.83-.73"/><path id="Path_26" data-name="Path 26" class="cls-1" d="M362.88,304.36l-.83-.73"/><path id="Path_27" data-name="Path 27" class="cls-2" d="M296.08,112a111.18,111.18,0,0,1-78.47,106.67l-67.94-68.49h36.88a37.67,37.67,0,0,0,0-75.34H74.93L34,33.52H84.66L70.32,20.05H20.67L1.2.5H185.53a110,110,0,0,1,78.22,32.6A111.77,111.77,0,0,1,296.1,112Z"/><path id="Path_28" data-name="Path 28" class="cls-2" d="M107.9,149.63H5.3L153.67,299.27H256.35L205.3,247.8Z"/></g></g></g></g></svg>